# xmcd
#
# Track frame offsets:
#	150
#	13960
#	26470
#	44397
#	62812
#	79560
#	94165
#	108612
#	127020
#	141652
#	155897
#	173245
#	190892
#	219100
#
# Disc length: 3157 seconds
#
# Revision: 0
# Processed by: cddbd v1.4PL0 Copyright (c) Steve Scherf et al.
# Submitted via: EasyCDDAExtractor 4.6.0.1
#
DISCID=ca0c530e
DTITLE=WEATHERLY Jennifer - LIVE
DYEAR=1997
DGENRE=Country
TTITLE0=Lucky Day
TTITLE1=The Lies That Bind
TTITLE2=The Rest Is History
TTITLE3=Apartment  #9
TTITLE4=Boogie Till The Cows Come Home
TTITLE5=Bye Bye Love
TTITLE6=Ain't Through Loving You Yet
TTITLE7=He Lays It All On The Line
TTITLE8=No One Has To Tell You
TTITLE9=I Never Knew I Could Feel This Way
TTITLE10=Roll On Santa Fe
TTITLE11=Rocky Top
TTITLE12=Wastin'time With You
TTITLE13=Rolling On My Sweet Baby's Arms
EXTD=
EXTT0=
EXTT1=
EXTT2=
EXTT3=
EXTT4=
EXTT5=
EXTT6=
EXTT7=
EXTT8=
EXTT9=
EXTT10=
EXTT11=
EXTT12=
EXTT13=
PLAYORDER=
